<svg width="22" height="22" viewBox="0 0 22 22" fill="none" xmlns="http://www.w3.org/2000/svg">
<path d="M4.0881 0.461043C4.0881 0.215154 3.87295 0 3.62706 0C3.38117 0 3.16602 0.215154 3.16602 0.461043V2.55111H4.0881V0.461043Z" fill="white"/>
<path d="M6.85373 0.461043C6.85373 0.215154 6.63857 0 6.39268 0C6.14679 0 5.93164 0.215154 5.93164 0.461043V2.55111H6.85373V0.461043Z" fill="white"/>
<path d="M15.1526 0.461043C15.1526 0.215154 14.9374 0 14.6915 0C14.4456 0 14.2305 0.215154 14.2305 0.461043V2.55111H15.1526V0.461043Z" fill="white"/>
<path d="M17.8889 0.461043C17.8889 0.215154 17.6737 0 17.4278 0C17.182 0 16.9668 0.215154 16.9668 0.461043V2.55111H17.8889V0.461043Z" fill="white"/>
<path d="M20.163 2.55127H17.9192V4.30323C17.9192 4.54912 17.7041 4.76428 17.4582 4.76428C17.2123 4.76428 16.9971 4.54912 16.9971 4.30323V2.55127H15.153V4.30323C15.153 4.54912 14.9378 4.76428 14.6919 4.76428C14.446 4.76428 14.2309 4.57986 14.2309 4.30323V2.55127H6.85418V4.30323C6.85418 4.54912 6.63903 4.76428 6.39314 4.76428C6.14725 4.76428 5.93209 4.57986 5.93209 4.30323V2.55127H4.08792V4.30323C4.08792 4.54912 3.87277 4.76428 3.62688 4.76428C3.38099 4.76428 3.16583 4.54912 3.16583 4.30323V2.55127H0.922087C0.430307 2.55127 0 2.95084 0 3.47336V6.08594H21.0543V3.47336C21.0851 2.95084 20.6548 2.55127 20.163 2.55127Z" fill="white"/>
<path d="M0 20.5932C0 21.085 0.399571 21.5153 0.922087 21.5153H20.1322C20.624 21.5153 21.0543 21.1157 21.0543 20.5932V6.97705H0V20.5932ZM17.1508 8.79049H19.3946V11.0342H17.1508V8.79049ZM17.1508 13.1243H19.3946V15.368H17.1508V13.1243ZM13.2781 8.79049H15.5218V11.0342H13.2781V8.79049ZM13.2781 13.1243H15.5218V15.368H13.2781V13.1243ZM9.40529 8.79049H11.649V11.0342H9.40529V8.79049ZM9.40529 13.1243H11.649V15.368H9.40529V13.1243ZM9.40529 17.4581H11.649V19.7018H9.40529V17.4581ZM5.56326 13.1243H7.807V15.368H5.56326V13.1243ZM5.56326 17.4581H7.807V19.7018H5.56326V17.4581ZM1.69049 13.1243H3.93424V15.368H1.69049V13.1243ZM1.69049 17.4581H3.93424V19.7018H1.69049V17.4581Z" fill="white"/>
</svg>
