<svg width="24" height="22" viewBox="0 0 24 22" fill="none" xmlns="http://www.w3.org/2000/svg">
<path d="M23.9374 8.31361C23.8607 8.0861 23.7156 7.88523 23.5204 7.73604C23.3252 7.58685 23.0884 7.49593 22.8395 7.47462L15.913 6.87288L13.1742 0.739744C13.0758 0.520107 12.9122 0.332935 12.7036 0.201437C12.4951 0.0699387 12.2508 -0.000101751 12.001 1.10947e-07C11.7512 0.000101972 11.507 0.0703417 11.2985 0.20201C11.0901 0.333678 10.9266 0.520983 10.8284 0.740701L8.08961 6.87288L1.16214 7.47462C0.913037 7.49578 0.675941 7.58657 0.480363 7.73568C0.284786 7.88479 0.139366 8.08564 0.0622034 8.31323C-0.0149587 8.54082 -0.0204548 8.7851 0.0463995 9.01565C0.113254 9.2462 0.249506 9.45285 0.438195 9.60988L5.67379 14.0029L4.12991 20.5091C4.0744 20.742 4.0916 20.9854 4.17937 21.209C4.26714 21.4327 4.42162 21.6267 4.62363 21.7671C4.82565 21.9075 5.06631 21.9881 5.31574 21.9988C5.56518 22.0095 5.81242 21.9499 6.02677 21.8274L12.0013 18.4111L17.9739 21.8274C18.1883 21.9497 18.4355 22.0092 18.6849 21.9984C18.9343 21.9876 19.175 21.9071 19.377 21.7668C19.579 21.6264 19.7336 21.4325 19.8215 21.2089C19.9095 20.9854 19.9269 20.742 19.8717 20.5091L18.3278 14.0029L23.5634 9.61084C23.9484 9.28844 24.0954 8.7795 23.9374 8.31361Z" fill="white"/>
</svg>
